<?xml version="1.0" standalone="no"?>
<!DOCTYPE svg PUBLIC "-//W3C//DTD SVG 20010904//EN"
 "http://www.w3.org/TR/2001/REC-SVG-20010904/DTD/svg10.dtd">
<svg version="1.0" xmlns="http://www.w3.org/2000/svg"
 width="500.000000pt" height="500.000000pt" viewBox="0 0 500.000000 500.000000"
 preserveAspectRatio="xMidYMid meet">
<metadata>
Created by potrace 1.14, written by Peter Selinger 2001-2017
</metadata>
<g transform="translate(0.000000,500.000000) scale(0.100000,-0.100000)"
fill="#000000" stroke="none">
<path d="M2217 4383 c-2 -2 -46 -5 -98 -8 -52 -3 -112 -8 -134 -11 -22 -3 -50
-6 -62 -8 -12 -1 -25 -4 -28 -8 -7 -7 -64 -154 -70 -179 -2 -9 -8 -25 -13 -35
-11 -19 -41 -97 -43 -112 -3 -16 -13 -37 -20 -42 -4 -3 -260 -5 -568 -4 l-561
1 -51 -26 c-63 -31 -86 -61 -96 -121 -5 -25 -8 -568 -7 -1207 0 -946 3 -1165
14 -1178 7 -8 10 -18 7 -21 -9 -9 57 -70 101 -93 22 -11 55 -21 72 -21 16 0
30 -4 30 -8 0 -5 21 -9 47 -11 25 -1 54 -6 64 -12 10 -5 35 -11 56 -13 21 -2
49 -7 63 -11 14 -3 36 -8 50 -9 14 -2 36 -7 50 -11 14 -5 34 -9 46 -11 30 -3
131 -24 184 -37 25 -6 49 -10 53 -9 5 1 27 -3 50 -9 23 -6 58 -13 77 -16 19
-2 42 -7 50 -9 8 -3 33 -8 55 -11 22 -2 44 -8 50 -12 5 -4 28 -9 50 -10 22 -2
45 -6 50 -10 6 -4 26 -8 45 -10 19 -1 49 -6 65 -11 17 -5 48 -11 70 -14 22 -2
47 -7 55 -10 8 -3 32 -8 54 -11 21 -3 42 -8 47 -11 9 -5 67 -15 97 -17 6 0 12
-3 12 -7 0 -4 15 -8 33 -8 37 -2 53 -5 86 -16 13 -5 40 -9 60 -10 20 -1 43 -6
51 -11 16 -11 259 -16 275 -6 11 6 15 7 70 16 22 3 54 11 72 16 18 6 47 11 65
11 18 0 38 4 44 9 6 5 26 9 45 10 19 2 43 7 54 12 10 6 35 11 55 11 19 1 40 5
46 9 7 4 27 9 45 11 19 3 56 10 83 16 27 6 51 9 53 6 3 -2 21 1 42 9 20 7 55
15 76 18 22 2 47 7 55 10 8 3 32 9 54 12 21 3 42 8 47 11 5 3 31 7 57 9 26 2
49 5 52 6 3 1 8 1 13 0 4 0 7 3 7 7 0 5 15 9 33 10 17 1 48 6 67 12 19 5 49
10 67 10 17 0 34 4 38 9 3 5 18 9 33 9 15 -1 46 5 67 12 22 7 49 14 60 14 24
2 130 24 166 35 14 4 42 8 62 7 21 -1 38 2 40 7 1 4 20 10 42 13 97 14 167 70
192 153 14 51 16 167 16 1197 1 904 -2 1150 -12 1187 -14 48 -59 98 -109 119
-20 9 -225 12 -757 13 -604 1 -734 4 -755 15 -14 8 -29 15 -35 16 -21 4 -171
57 -197 70 -15 8 -36 14 -48 14 -11 0 -20 5 -20 10 0 6 -11 10 -24 10 -14 0
-28 5 -31 10 -3 6 -15 10 -26 10 -10 0 -27 4 -37 9 -9 5 -34 16 -54 24 -31 14
-42 27 -68 84 -17 37 -35 76 -40 85 -6 10 -10 24 -10 32 0 17 -99 34 -113 19z
m-529 -513 c15 0 22 -6 22 -20 0 -11 -4 -20 -9 -20 -8 0 -14 -20 -23 -75 -2
-14 2 -19 14 -17 9 1 23 -7 31 -19 16 -23 61 -49 83 -49 8 0 22 -4 32 -9 9 -6
62 -26 117 -46 55 -20 114 -42 130 -48 17 -6 35 -13 40 -14 22 -5 85 -30 91
-36 4 -4 18 -7 31 -7 12 0 23 -4 23 -10 0 -5 14 -10 30 -10 17 0 30 -4 30 -10
0 -5 9 -10 20 -10 28 0 71 -22 67 -34 -2 -6 -15 -11 -28 -12 -13 0 -40 -4 -59
-9 -39 -9 -65 -13 -97 -14 -21 -1 -50 -44 -57 -83 -1 -7 -7 -22 -13 -34 -9
-16 -9 -26 2 -45 8 -13 17 -31 21 -39 4 -8 15 -24 23 -36 14 -18 21 -107 12
-155 0 -4 -64 -7 -140 -7 -77 0 -144 -2 -149 -6 -21 -13 -42 20 -47 77 -2 32
-7 63 -11 68 -3 6 -7 36 -9 67 -2 31 -4 57 -5 57 -3 0 -8 45 -14 117 -3 38
-10 84 -15 105 -6 20 -8 40 -5 44 2 4 -1 11 -7 15 -6 4 -206 7 -443 7 -452 1
-439 2 -543 -44 -48 -21 -69 -24 -78 -9 -3 6 -24 10 -46 10 -34 0 -39 -3 -40
-22 0 -13 -1 -69 -2 -125 0 -57 -4 -103 -8 -103 -3 0 -3 -19 2 -42 12 -61 11
-128 -2 -128 -5 0 -7 -4 -4 -10 3 -5 33 -10 66 -10 59 0 59 0 45 23 -15 24
-15 78 1 117 6 15 7 34 2 48 -13 34 -11 40 14 47 12 3 31 10 42 15 22 9 102
31 110 30 3 0 21 7 41 15 20 8 49 16 65 17 16 1 29 6 29 10 0 5 14 7 30 6 17
-1 30 -6 30 -11 0 -4 23 -42 50 -84 28 -42 50 -80 50 -84 0 -5 5 -9 10 -9 6 0
10 -7 10 -15 0 -8 5 -15 10 -15 6 0 10 -7 10 -15 0 -8 5 -15 10 -15 6 0 10 -5
10 -10 0 -10 48 -89 60 -100 3 -3 5 -32 5 -65 -2 -62 9 -100 25 -90 11 7 24
-38 18 -57 -5 -13 27 -48 44 -48 18 0 37 27 40 56 4 42 24 59 51 46 36 -17
147 -41 163 -35 16 6 54 -23 54 -42 0 -7 7 -18 15 -25 10 -9 15 -9 15 -1 0 6
3 10 8 10 23 -4 32 4 32 26 0 14 6 26 13 26 6 1 120 2 252 3 170 1 246 -2 260
-10 11 -6 29 -10 40 -8 11 2 31 -8 46 -22 l27 -26 218 2 c212 1 348 4 369 10
6 1 12 1 15 0 38 -14 91 -14 101 1 5 8 8 8 13 0 5 -7 58 -11 159 -10 84 0 160
0 170 0 9 0 27 0 40 1 12 0 45 0 72 -1 78 -2 180 5 193 13 6 4 24 0 39 -7 30
-16 60 -10 82 17 8 10 29 16 55 16 52 0 63 8 61 44 -2 29 24 66 48 66 25 1
117 164 126 223 0 4 8 21 16 37 9 17 13 30 10 30 -3 0 0 10 7 23 6 12 13 29
15 37 1 9 10 34 19 55 9 22 16 41 15 43 -1 2 9 12 24 23 14 12 23 24 20 29 -3
5 -1 12 5 15 6 4 1 18 -15 37 -25 30 -32 48 -17 48 9 0 34 99 27 110 -8 14
-125 32 -125 20 0 -3 -17 -6 -38 -6 -20 -1 -91 -4 -157 -7 -94 -4 -132 -2
-177 11 -32 9 -58 20 -58 24 0 4 -11 8 -24 8 -14 0 -28 5 -31 10 -3 6 -16 10
-29 10 -12 0 -26 3 -29 7 -9 9 -107 43 -107 37 0 -3 -10 2 -22 10 -12 9 -30
16 -40 16 -10 0 -18 4 -18 8 0 5 -6 9 -12 10 -22 2 -56 12 -103 32 -11 5 -30
12 -42 15 -36 10 -27 25 15 26 20 0 265 1 545 1 l507 1 23 -22 24 -21 -2
-1173 c-1 -644 -3 -1175 -3 -1178 -3 -10 -51 -59 -59 -60 -5 -1 -18 -5 -30
-10 -12 -4 -40 -9 -63 -11 -22 -1 -40 -6 -40 -11 0 -5 -7 -7 -15 -4 -8 4 -17
2 -20 -3 -3 -5 -15 -7 -26 -5 -12 2 -33 -2 -48 -9 -14 -7 -34 -12 -44 -10 -10
1 -31 -2 -45 -7 -15 -5 -45 -11 -67 -13 -22 -2 -42 -5 -45 -6 -3 -1 -8 -2 -12
-1 -5 0 -8 -3 -8 -7 0 -4 -10 -8 -22 -8 -39 -1 -83 -9 -88 -15 -3 -4 -25 -9
-50 -12 -25 -3 -58 -9 -75 -12 -16 -4 -37 -8 -45 -9 -8 -1 -22 -5 -30 -9 -8
-4 -33 -8 -55 -10 -22 -1 -46 -6 -53 -10 -7 -5 -31 -10 -55 -13 -23 -2 -71
-11 -106 -19 -36 -7 -68 -12 -72 -9 -4 2 -9 0 -11 -6 -1 -5 -21 -11 -43 -13
-22 -1 -46 -6 -54 -11 -7 -5 -32 -10 -55 -11 -22 -2 -42 -4 -43 -5 -2 -2 -7
-4 -13 -5 -5 -1 -11 -4 -12 -5 -2 -1 -16 -4 -33 -5 -16 -2 -50 -8 -75 -13 -25
-6 -72 -16 -105 -22 -33 -6 -77 -16 -97 -21 -20 -5 -56 -12 -80 -15 -24 -4
-47 -10 -53 -14 -15 -11 -178 -5 -201 8 -12 6 -23 9 -26 7 -2 -3 -31 2 -63 10
-32 9 -64 13 -72 11 -7 -3 -15 -1 -18 5 -4 5 -11 7 -16 4 -5 -4 -9 -2 -9 3 0
5 -17 10 -37 11 -36 1 -75 7 -80 11 -2 2 -7 4 -13 5 -5 1 -12 3 -15 5 -3 1
-20 2 -37 3 -18 0 -35 4 -38 8 -3 4 -23 8 -45 10 -22 1 -49 7 -60 13 -11 5
-36 10 -55 11 -19 2 -42 5 -50 8 -56 23 -70 26 -70 16 0 -6 -7 -6 -20 1 -11 6
-20 8 -20 4 0 -3 -6 -2 -12 4 -7 5 -37 13 -67 16 -30 4 -59 10 -65 15 -6 5
-19 7 -29 6 -10 -2 -32 1 -50 7 -18 6 -48 11 -68 13 -19 1 -45 7 -56 14 -12 6
-35 11 -51 11 -16 0 -45 7 -65 15 -19 8 -37 12 -40 8 -4 -3 -26 -1 -49 6 -24
6 -57 13 -73 14 -17 2 -37 7 -44 11 -7 5 -30 9 -50 10 -20 1 -41 5 -47 8 -6 4
-33 10 -60 14 -27 3 -57 10 -67 15 -9 6 -34 11 -55 12 -60 5 -109 34 -122 73
-6 19 -15 34 -19 34 -8 0 -7 47 1 55 3 3 2 20 -1 38 -4 18 -6 48 -4 67 3 19 4
42 4 50 0 92 -1 202 -1 230 0 179 1 219 3 245 1 17 -1 40 -5 52 -4 12 -3 25 3
28 5 4 7 11 3 16 -3 6 -6 34 -5 62 2 91 0 151 -5 159 -3 4 -1 8 5 8 6 0 6 11
1 29 -4 16 -6 32 -3 35 9 9 9 59 0 79 -4 9 -4 17 0 17 6 0 8 486 3 883 0 6 1
67 2 134 3 112 5 123 27 147 32 34 -42 32 1099 26z m977 -510 c8 -7 19 -9 25
-5 5 3 10 2 10 -4 0 -5 15 -13 33 -16 17 -4 37 -10 42 -14 6 -4 30 -14 55 -21
25 -8 65 -22 90 -33 25 -10 52 -20 60 -22 8 -2 60 -20 115 -40 55 -19 101 -35
103 -35 2 0 1 -4 -2 -8 -3 -5 -155 -9 -339 -10 -184 -2 -345 -5 -358 -8 -13
-3 -28 -6 -34 -7 -5 -2 -15 -6 -21 -9 -18 -12 -40 13 -77 83 -28 54 -32 68
-22 82 7 9 17 17 22 17 6 0 36 11 67 25 31 14 56 23 56 20 0 -2 12 3 28 11 31
17 124 13 147 -6z m-1110 -195 c6 -5 22 -26 37 -47 15 -20 34 -43 42 -51 8 -8
18 -26 22 -41 7 -28 10 -27 -94 -28 -52 -1 -69 22 -71 97 -1 36 1 70 4 76 8
12 46 8 60 -6z"/>
<path d="M1356 2811 c-3 -5 1 -11 9 -15 8 -3 15 -1 15 4 0 13 -18 22 -24 11z"/>
<path d="M744 2739 c-3 -6 -6 -751 -4 -1136 l0 -83 1740 0 1740 0 0 98 c1 112
1 1015 0 1082 l0 45 -1736 0 c-955 0 -1738 -3 -1740 -6z m1351 -243 c14 -9 25
-20 25 -25 0 -5 3 -17 6 -26 6 -15 -1 -16 -60 -13 -73 3 -89 -6 -26 -17 22 -4
51 -16 65 -27 22 -17 26 -27 23 -61 -5 -64 -47 -85 -159 -78 -31 1 -79 46 -79
72 0 16 8 19 48 19 26 0 52 -4 58 -10 5 -5 15 -6 23 -1 9 6 -3 14 -42 25 -78
23 -102 61 -76 120 25 53 128 65 194 22z m-534 14 c1 -6 2 -21 2 -35 0 -49 -2
-51 -40 -51 -21 1 -38 -4 -40 -11 -3 -9 7 -13 31 -13 37 0 40 -4 39 -55 -1
-34 -2 -35 -38 -35 -32 0 -35 -2 -35 -30 0 -30 -1 -30 -55 -30 l-55 0 0 134 0
133 95 1 c55 1 96 -3 96 -8z m269 -113 c24 -67 45 -128 48 -134 7 -20 -107
-18 -114 2 -4 9 -19 15 -35 15 -17 0 -32 -6 -35 -15 -5 -11 -21 -15 -60 -15
-30 0 -54 4 -54 9 0 5 18 60 40 123 22 62 42 118 45 124 2 7 28 12 62 13 l59
0 44 -122z m580 72 l0 -49 -38 0 -38 0 1 -85 1 -85 -55 0 -56 0 0 83 0 82 -37
3 -38 3 0 49 0 48 130 0 130 0 0 -49z m275 -57 c-1 -97 -2 -104 -27 -129 -22
-22 -39 -28 -88 -31 l-60 -4 0 51 c0 50 1 51 30 51 17 0 31 6 31 13 1 6 3 41
4 77 1 36 3 69 4 73 0 5 25 7 54 5 l52 -3 0 -103z m146 95 c0 -7 0 -44 -1 -83
-1 -54 2 -73 13 -77 24 -9 27 2 27 89 l0 82 55 1 55 0 1 -57 c3 -133 -5 -166
-41 -192 -57 -40 -167 -28 -200 23 -9 14 -15 57 -17 124 l-3 102 55 0 c35 0
55 -5 56 -12z m307 -36 c33 -47 34 -46 35 22 0 27 2 27 53 26 51 -2 53 -3 56
-33 2 -17 2 -77 0 -133 l-3 -103 -43 0 c-33 0 -47 6 -64 25 -12 14 -22 29 -22
34 0 5 -7 14 -16 22 -13 11 -15 11 -14 -2 1 -7 2 -29 1 -47 l-1 -33 -52 3 -53
3 0 133 0 132 46 -1 c42 -2 48 -5 77 -48z m292 7 c0 -49 20 -47 36 3 11 33 13
34 68 35 31 1 56 -1 56 -4 0 -3 -10 -36 -21 -72 l-22 -67 27 -58 c14 -31 26
-59 26 -61 0 -2 -27 -4 -60 -4 l-59 0 -23 48 -22 47 -4 -47 -3 -48 -55 0 -54
0 0 35 c-1 19 -1 76 -1 125 0 50 0 95 1 100 0 6 23 10 55 9 l55 -2 0 -39z
m-2215 -402 c18 -8 39 -24 45 -36 16 -30 15 -82 -1 -111 -7 -13 -13 -26 -12
-29 1 -3 9 -22 17 -42 l16 -38 -59 0 c-59 0 -59 0 -71 36 -13 39 -25 37 -25
-4 -1 -26 -3 -27 -55 -27 l-55 0 0 125 c-1 69 1 128 3 133 6 13 161 8 197 -7z
m295 -26 l0 -40 -50 0 c-27 0 -50 -4 -50 -10 0 -5 20 -10 45 -10 45 0 45 0 45
-35 0 -35 0 -35 -46 -35 -32 0 -44 -4 -42 -12 3 -8 22 -12 51 -12 l47 1 0 -38
0 -39 -103 0 -102 0 1 128 c1 70 2 130 3 135 0 4 46 7 101 7 l100 0 0 -40z
m159 -7 l41 -48 22 30 c42 55 57 65 98 65 45 0 41 15 41 -145 0 -141 6 -126
-53 -123 l-53 3 1 42 0 43 -21 -20 c-28 -26 -59 -25 -78 3 -15 21 -16 21 -16
-25 l-1 -48 -53 0 -54 0 0 128 c-1 70 1 130 4 135 2 4 21 7 43 7 33 0 43 -6
79 -47z m460 29 c93 -50 92 -190 -2 -238 -72 -38 -182 -12 -211 51 -21 43 -20
109 1 142 41 62 141 83 212 45z m200 -19 c5 -21 13 -51 17 -68 l7 -30 8 25 c4
14 13 44 19 68 l11 42 54 0 c30 0 55 -3 55 -7 0 -5 -19 -65 -42 -135 l-42
-128 -61 0 -60 0 -43 128 c-23 70 -42 130 -42 135 0 4 25 7 55 7 l54 0 10 -37z
m391 35 c0 -2 20 -61 45 -131 25 -71 45 -131 45 -133 0 -2 -25 -4 -55 -4 -40
0 -57 4 -61 15 -4 9 -19 15 -35 15 -17 0 -32 -6 -35 -15 -5 -11 -21 -15 -60
-15 -30 0 -54 3 -54 8 0 6 26 81 85 250 3 8 25 12 65 12 33 0 60 -1 60 -2z
m220 -82 l0 -85 47 -3 47 -3 1 -45 0 -45 -102 -3 -103 -3 0 136 0 135 55 0 55
0 0 -84z m310 1 c0 -88 3 -99 26 -90 10 4 14 26 14 89 l0 84 55 0 55 0 1 -52
c3 -162 -11 -198 -80 -215 -77 -20 -152 7 -171 60 -11 33 -14 190 -3 200 3 4
28 7 55 7 l48 0 0 -83z m426 -47 c24 -68 44 -128 44 -132 0 -4 -24 -8 -54 -8
-39 0 -55 4 -60 15 -3 9 -18 15 -36 15 -18 0 -33 -6 -36 -15 -5 -11 -21 -15
-60 -15 -30 0 -54 2 -54 3 0 2 20 61 45 131 25 71 45 130 45 133 0 2 28 3 61
1 l62 -3 43 -125z m274 90 c0 -22 -3 -39 -7 -39 -5 1 -27 1 -50 0 -57 -1 -55
-21 2 -21 45 0 45 0 45 -35 0 -35 0 -35 -46 -35 -57 0 -56 -23 2 -25 21 -1 42
-3 47 -4 4 0 7 -17 7 -36 l0 -35 -104 0 -104 0 0 128 c0 70 2 130 5 135 2 4
49 7 104 7 l99 0 0 -40z"/>
<path d="M1718 2376 c-3 -15 -1 -29 3 -32 14 -8 22 23 11 42 -8 14 -10 13 -14
-10z"/>
<path d="M1127 2003 c-4 -3 -7 -15 -7 -25 0 -28 34 -19 38 10 3 21 -16 31 -31
15z"/>
<path d="M2017 1983 c-12 -12 -7 -50 8 -63 30 -25 72 11 60 51 -6 19 -54 27
-68 12z"/>
<path d="M3560 1941 c0 -20 13 -35 23 -25 7 8 -4 44 -14 44 -5 0 -9 -9 -9 -19z"/>
<path d="M839 1459 c-16 -9 1 -15 36 -14 17 1 36 -2 43 -8 6 -5 12 -6 12 -2 0
4 6 3 13 -2 6 -5 30 -11 51 -12 22 -1 44 -5 50 -9 15 -9 37 -14 65 -13 13 1
30 -4 37 -10 8 -6 14 -9 14 -7 0 3 30 -1 68 -9 37 -7 84 -15 104 -17 20 -2 42
-7 49 -11 6 -4 28 -9 49 -10 20 -1 41 -5 47 -8 5 -3 25 -9 44 -12 38 -6 98
-18 175 -35 28 -6 65 -13 83 -15 17 -2 36 -7 41 -10 5 -3 30 -8 56 -11 26 -2
51 -7 55 -10 5 -3 22 -7 37 -10 40 -6 121 -24 167 -35 22 -6 49 -10 60 -10 11
0 38 -5 60 -11 22 -6 53 -12 69 -14 16 -1 41 -6 55 -10 83 -23 190 -21 278 5
17 5 45 8 62 7 17 -1 32 1 33 5 2 5 19 10 38 14 19 3 55 10 80 15 25 5 59 12
75 14 17 3 47 9 67 14 20 6 39 7 42 4 3 -2 12 1 21 8 8 7 22 10 30 6 8 -3 15
-1 15 5 0 6 4 8 9 5 4 -3 33 1 62 8 30 7 61 14 69 14 8 0 36 5 63 11 26 6 68
16 95 22 26 6 58 12 72 13 14 1 30 4 35 8 6 3 32 9 59 12 27 4 54 10 60 14 6
4 25 7 42 8 18 1 45 5 60 9 16 5 38 9 49 10 11 2 34 6 50 10 17 4 55 11 85 16
30 6 59 14 65 19 7 6 15 7 18 4 3 -4 30 0 59 7 49 12 62 14 104 18 8 0 13 5
10 9 -2 4 -164 7 -358 5 -194 -2 -360 -3 -368 -3 -176 4 -1848 5 -1854 1 -14
-6 -96 -8 -96 -2 0 8 -658 8 -671 0z m942 -25 c7 -4 51 -8 99 -10 49 -1 115
-8 147 -15 32 -7 67 -11 78 -10 43 5 165 -2 165 -10 0 -8 53 -11 235 -11 176
-1 285 8 315 27 6 3 10 1 10 -5 0 -6 4 -9 10 -5 5 3 38 6 72 7 35 1 70 5 79 9
9 5 63 11 120 13 57 3 115 8 129 11 14 3 67 7 119 9 78 2 90 0 76 -10 -10 -8
-21 -11 -26 -8 -4 2 -29 -1 -56 -7 -26 -6 -61 -13 -78 -16 -16 -3 -32 -7 -34
-9 -2 -2 -12 1 -22 7 -13 6 -19 6 -19 -1 0 -5 -3 -9 -7 -9 -5 1 -10 0 -13 -1
-16 -6 -49 -12 -81 -14 -19 -1 -40 -6 -47 -10 -6 -4 -39 -9 -73 -12 -35 -3
-70 -9 -79 -14 -9 -5 -25 -7 -35 -6 -11 2 -35 -1 -55 -6 -19 -5 -57 -11 -85
-14 -56 -7 -90 -12 -90 -14 0 -4 -46 -11 -93 -13 -52 -3 -133 5 -197 18 -16 4
-46 8 -65 10 -19 1 -46 5 -60 9 -14 3 -45 8 -70 10 -25 3 -57 9 -70 13 -14 5
-38 8 -55 8 -16 -1 -34 1 -40 4 -13 7 -32 11 -85 17 -25 2 -52 7 -60 10 -8 4
-31 8 -50 10 -19 3 -55 9 -80 14 -42 9 -97 18 -127 19 -7 1 -13 5 -13 9 0 10
195 6 211 -4z"/>
</g>
</svg>
